<mxfile host="app.diagrams.net" agent="Mozilla/5.0 (Windows NT 10.0; Win64; x64; rv:136.0) Gecko/20100101 Firefox/136.0" version="28.2.3">
  <diagram name="Страница — 1" id="rhCQ5BCRHmvh9lNXYi82">
    <mxGraphModel dx="1426" dy="787" grid="0" gridSize="10" guides="1" tooltips="1" connect="1" arrows="1" fold="1" page="1" pageScale="1" pageWidth="827" pageHeight="1169" math="0" shadow="0">
      <root>
        <mxCell id="0" />
        <mxCell id="1" parent="0" />
        <mxCell id="k8BG7JKfjnNBZ-ccPMXs-1" value="" style="endArrow=classic;html=1;rounded=0;entryX=0;entryY=0.5;entryDx=0;entryDy=0;" parent="1" target="k8BG7JKfjnNBZ-ccPMXs-4" edge="1">
          <mxGeometry width="50" height="50" relative="1" as="geometry">
            <mxPoint x="40" y="535" as="sourcePoint" />
            <mxPoint x="292.8800000000001" y="540" as="targetPoint" />
            <Array as="points" />
          </mxGeometry>
        </mxCell>
        <mxCell id="k8BG7JKfjnNBZ-ccPMXs-2" value="" style="endArrow=classic;html=1;rounded=0;entryX=0;entryY=0.25;entryDx=0;entryDy=0;" parent="1" target="k8BG7JKfjnNBZ-ccPMXs-4" edge="1">
          <mxGeometry width="50" height="50" relative="1" as="geometry">
            <mxPoint x="40" y="488" as="sourcePoint" />
            <mxPoint x="130" y="540" as="targetPoint" />
          </mxGeometry>
        </mxCell>
        <mxCell id="k8BG7JKfjnNBZ-ccPMXs-3" value="Заявка" style="text;html=1;align=center;verticalAlign=middle;whiteSpace=wrap;rounded=0;" parent="1" vertex="1">
          <mxGeometry x="100" y="450" width="130" height="40" as="geometry" />
        </mxCell>
        <mxCell id="k8BG7JKfjnNBZ-ccPMXs-4" value="Учет поступления автомобиля в магазин" style="text;html=1;align=center;verticalAlign=middle;whiteSpace=wrap;rounded=0;" parent="1" vertex="1">
          <mxGeometry x="274" y="442" width="280" height="190" as="geometry" />
        </mxCell>
        <mxCell id="k8BG7JKfjnNBZ-ccPMXs-5" value="Данные о клиенте" style="text;html=1;align=center;verticalAlign=middle;whiteSpace=wrap;rounded=0;" parent="1" vertex="1">
          <mxGeometry x="105" y="500" width="120" height="30" as="geometry" />
        </mxCell>
        <mxCell id="k8BG7JKfjnNBZ-ccPMXs-6" value="" style="endArrow=classic;html=1;rounded=0;entryX=0;entryY=0.75;entryDx=0;entryDy=0;" parent="1" target="k8BG7JKfjnNBZ-ccPMXs-4" edge="1">
          <mxGeometry width="50" height="50" relative="1" as="geometry">
            <mxPoint x="40" y="583" as="sourcePoint" />
            <mxPoint x="150" y="590" as="targetPoint" />
          </mxGeometry>
        </mxCell>
        <mxCell id="k8BG7JKfjnNBZ-ccPMXs-11" value="Данные об автомобиле" style="text;html=1;align=center;verticalAlign=middle;whiteSpace=wrap;rounded=0;" parent="1" vertex="1">
          <mxGeometry x="90" y="555" width="150" height="30" as="geometry" />
        </mxCell>
        <mxCell id="k8BG7JKfjnNBZ-ccPMXs-12" value="" style="endArrow=classic;html=1;rounded=0;exitX=1;exitY=0.25;exitDx=0;exitDy=0;" parent="1" source="k8BG7JKfjnNBZ-ccPMXs-4" edge="1">
          <mxGeometry width="50" height="50" relative="1" as="geometry">
            <mxPoint x="630" y="510" as="sourcePoint" />
            <mxPoint x="800" y="488" as="targetPoint" />
          </mxGeometry>
        </mxCell>
        <mxCell id="k8BG7JKfjnNBZ-ccPMXs-13" value="Справка подтверждение" style="text;html=1;align=center;verticalAlign=middle;whiteSpace=wrap;rounded=0;" parent="1" vertex="1">
          <mxGeometry x="620" y="455" width="170" height="30" as="geometry" />
        </mxCell>
        <mxCell id="k8BG7JKfjnNBZ-ccPMXs-14" value="" style="endArrow=classic;html=1;rounded=0;exitX=1;exitY=0.5;exitDx=0;exitDy=0;" parent="1" source="k8BG7JKfjnNBZ-ccPMXs-4" edge="1">
          <mxGeometry width="50" height="50" relative="1" as="geometry">
            <mxPoint x="650" y="590" as="sourcePoint" />
            <mxPoint x="800" y="535" as="targetPoint" />
          </mxGeometry>
        </mxCell>
        <mxCell id="k8BG7JKfjnNBZ-ccPMXs-15" value="обновленные списки" style="text;html=1;align=center;verticalAlign=middle;whiteSpace=wrap;rounded=0;" parent="1" vertex="1">
          <mxGeometry x="615" y="500" width="180" height="30" as="geometry" />
        </mxCell>
        <mxCell id="k8BG7JKfjnNBZ-ccPMXs-16" value="" style="endArrow=classic;html=1;rounded=0;exitX=1;exitY=0.75;exitDx=0;exitDy=0;" parent="1" source="k8BG7JKfjnNBZ-ccPMXs-4" edge="1">
          <mxGeometry width="50" height="50" relative="1" as="geometry">
            <mxPoint x="660" y="630" as="sourcePoint" />
            <mxPoint x="800" y="583" as="targetPoint" />
          </mxGeometry>
        </mxCell>
        <mxCell id="k8BG7JKfjnNBZ-ccPMXs-17" value="дневные отчеты" style="text;html=1;align=center;verticalAlign=middle;whiteSpace=wrap;rounded=0;" parent="1" vertex="1">
          <mxGeometry x="650" y="555" width="110" height="30" as="geometry" />
        </mxCell>
        <mxCell id="k8BG7JKfjnNBZ-ccPMXs-18" value="" style="endArrow=classic;html=1;rounded=0;entryX=0.25;entryY=0;entryDx=0;entryDy=0;" parent="1" target="k8BG7JKfjnNBZ-ccPMXs-4" edge="1">
          <mxGeometry width="50" height="50" relative="1" as="geometry">
            <mxPoint x="344" y="300" as="sourcePoint" />
            <mxPoint x="370" y="300" as="targetPoint" />
          </mxGeometry>
        </mxCell>
        <mxCell id="k8BG7JKfjnNBZ-ccPMXs-19" value="Регламент ОП" style="text;html=1;align=center;verticalAlign=middle;whiteSpace=wrap;rounded=0;" parent="1" vertex="1">
          <mxGeometry x="354" y="340" width="86" height="30" as="geometry" />
        </mxCell>
        <mxCell id="k8BG7JKfjnNBZ-ccPMXs-20" value="" style="endArrow=classic;html=1;rounded=0;entryX=0.75;entryY=0;entryDx=0;entryDy=0;" parent="1" target="k8BG7JKfjnNBZ-ccPMXs-4" edge="1">
          <mxGeometry width="50" height="50" relative="1" as="geometry">
            <mxPoint x="484" y="300" as="sourcePoint" />
            <mxPoint x="520" y="290" as="targetPoint" />
          </mxGeometry>
        </mxCell>
        <mxCell id="k8BG7JKfjnNBZ-ccPMXs-21" value="Внутренняя инструкция по продаже автомобиля" style="text;html=1;align=center;verticalAlign=middle;whiteSpace=wrap;rounded=0;" parent="1" vertex="1">
          <mxGeometry x="494" y="330" width="146" height="50" as="geometry" />
        </mxCell>
        <mxCell id="k8BG7JKfjnNBZ-ccPMXs-22" value="" style="endArrow=classic;html=1;rounded=0;entryX=0.25;entryY=1;entryDx=0;entryDy=0;" parent="1" target="k8BG7JKfjnNBZ-ccPMXs-4" edge="1">
          <mxGeometry width="50" height="50" relative="1" as="geometry">
            <mxPoint x="344" y="820" as="sourcePoint" />
            <mxPoint x="350" y="760" as="targetPoint" />
          </mxGeometry>
        </mxCell>
        <mxCell id="k8BG7JKfjnNBZ-ccPMXs-23" value="Кассир" style="text;html=1;align=center;verticalAlign=middle;whiteSpace=wrap;rounded=0;" parent="1" vertex="1">
          <mxGeometry x="320" y="830" width="60" height="30" as="geometry" />
        </mxCell>
        <mxCell id="k8BG7JKfjnNBZ-ccPMXs-24" value="" style="endArrow=classic;html=1;rounded=0;entryX=0.75;entryY=1;entryDx=0;entryDy=0;" parent="1" target="k8BG7JKfjnNBZ-ccPMXs-4" edge="1">
          <mxGeometry width="50" height="50" relative="1" as="geometry">
            <mxPoint x="484" y="820" as="sourcePoint" />
            <mxPoint x="490" y="720" as="targetPoint" />
          </mxGeometry>
        </mxCell>
        <mxCell id="k8BG7JKfjnNBZ-ccPMXs-25" value="Руководитель" style="text;html=1;align=center;verticalAlign=middle;whiteSpace=wrap;rounded=0;" parent="1" vertex="1">
          <mxGeometry x="450" y="830" width="60" height="30" as="geometry" />
        </mxCell>
        <mxCell id="PMB905X9mGQmhyh2dddg-5" value="" style="rounded=0;whiteSpace=wrap;html=1;fillColor=none;" vertex="1" parent="1">
          <mxGeometry x="273" y="443" width="282" height="189" as="geometry" />
        </mxCell>
      </root>
    </mxGraphModel>
  </diagram>
</mxfile>
